<mxfile host="app.diagrams.net" modified="2024-05-07T15:41:40.138Z" agent="Mozilla/5.0 (Windows NT 10.0; Win64; x64) AppleWebKit/537.36 (KHTML, like Gecko) Chrome/121.0.0.0 Safari/537.36 OPR/107.0.0.0" etag="89ayNNmU1JfByhz7MVcJ" version="24.3.1" type="github">
  <diagram name="PÃ¡gina-1" id="g3YgF-PqywpLP40lVcz_">
    <mxGraphModel dx="1393" dy="789" grid="1" gridSize="10" guides="1" tooltips="1" connect="1" arrows="1" fold="1" page="1" pageScale="1" pageWidth="827" pageHeight="1169" math="0" shadow="0">
      <root>
        <mxCell id="0" />
        <mxCell id="1" parent="0" />
        <mxCell id="_2UYyv0-ffHDAKr5DHzZ-28" style="edgeStyle=orthogonalEdgeStyle;rounded=0;orthogonalLoop=1;jettySize=auto;html=1;exitX=0.5;exitY=1;exitDx=0;exitDy=0;entryX=0.5;entryY=0;entryDx=0;entryDy=0;" edge="1" parent="1" source="_2UYyv0-ffHDAKr5DHzZ-1" target="_2UYyv0-ffHDAKr5DHzZ-17">
          <mxGeometry relative="1" as="geometry" />
        </mxCell>
        <mxCell id="_2UYyv0-ffHDAKr5DHzZ-1" value="&lt;p style=&quot;margin:0px;margin-top:4px;text-align:center;&quot;&gt;&lt;i&gt;&amp;lt;&amp;lt;Interface&amp;gt;&amp;gt;&lt;/i&gt;&lt;br&gt;&lt;b&gt;Gerar Pedido&lt;/b&gt;&lt;/p&gt;&lt;hr size=&quot;1&quot; style=&quot;border-style:solid;&quot;&gt;&lt;p style=&quot;margin:0px;margin-left:4px;&quot;&gt;+ AdicionarProduto(Produto): void&lt;br&gt;+ ConcluirPedido(): DadosGerarPedido&lt;/p&gt;" style="verticalAlign=top;align=left;overflow=fill;html=1;whiteSpace=wrap;" vertex="1" parent="1">
          <mxGeometry x="200" y="220" width="190" height="105" as="geometry" />
        </mxCell>
        <mxCell id="_2UYyv0-ffHDAKr5DHzZ-29" style="edgeStyle=orthogonalEdgeStyle;rounded=0;orthogonalLoop=1;jettySize=auto;html=1;entryX=1;entryY=0.5;entryDx=0;entryDy=0;" edge="1" parent="1" source="_2UYyv0-ffHDAKr5DHzZ-2" target="_2UYyv0-ffHDAKr5DHzZ-17">
          <mxGeometry relative="1" as="geometry" />
        </mxCell>
        <mxCell id="_2UYyv0-ffHDAKr5DHzZ-2" value="&amp;lt;&amp;lt;mensagem&amp;gt;&amp;gt;&lt;div&gt;DadosGerarPedido&lt;/div&gt;" style="swimlane;fontStyle=1;align=center;verticalAlign=top;childLayout=stackLayout;horizontal=1;startSize=40;horizontalStack=0;resizeParent=1;resizeParentMax=0;resizeLast=0;collapsible=1;marginBottom=0;whiteSpace=wrap;html=1;" vertex="1" parent="1">
          <mxGeometry x="414" y="345" width="160" height="80" as="geometry" />
        </mxCell>
        <mxCell id="_2UYyv0-ffHDAKr5DHzZ-3" value="&lt;div&gt;- produtos: Array&amp;lt;Produto&amp;gt;&lt;span style=&quot;background-color: initial;&quot;&gt;&amp;nbsp;&lt;/span&gt;&lt;/div&gt;" style="text;strokeColor=none;fillColor=none;align=left;verticalAlign=top;spacingLeft=4;spacingRight=4;overflow=hidden;rotatable=0;points=[[0,0.5],[1,0.5]];portConstraint=eastwest;whiteSpace=wrap;html=1;" vertex="1" parent="_2UYyv0-ffHDAKr5DHzZ-2">
          <mxGeometry y="40" width="160" height="40" as="geometry" />
        </mxCell>
        <mxCell id="_2UYyv0-ffHDAKr5DHzZ-32" style="edgeStyle=orthogonalEdgeStyle;rounded=0;orthogonalLoop=1;jettySize=auto;html=1;exitX=0.5;exitY=1;exitDx=0;exitDy=0;entryX=0.5;entryY=0;entryDx=0;entryDy=0;" edge="1" parent="1" source="_2UYyv0-ffHDAKr5DHzZ-5" target="_2UYyv0-ffHDAKr5DHzZ-31">
          <mxGeometry relative="1" as="geometry" />
        </mxCell>
        <mxCell id="_2UYyv0-ffHDAKr5DHzZ-5" value="&lt;p style=&quot;margin:0px;margin-top:4px;text-align:center;&quot;&gt;&lt;i&gt;&amp;lt;&amp;lt;Interface&amp;gt;&amp;gt;&lt;/i&gt;&lt;br&gt;&lt;b&gt;Pedido&lt;/b&gt;&lt;/p&gt;&lt;hr size=&quot;1&quot; style=&quot;border-style:solid;&quot;&gt;&lt;p style=&quot;margin:0px;margin-left:4px;&quot;&gt;+ inserirPedido(DadosGerarPedido): void&lt;br&gt;+ buscarPedido(String): DadosPedido&lt;/p&gt;" style="verticalAlign=top;align=left;overflow=fill;html=1;whiteSpace=wrap;" vertex="1" parent="1">
          <mxGeometry x="187.5" y="450" width="215" height="110" as="geometry" />
        </mxCell>
        <mxCell id="_2UYyv0-ffHDAKr5DHzZ-33" style="edgeStyle=orthogonalEdgeStyle;rounded=0;orthogonalLoop=1;jettySize=auto;html=1;entryX=1;entryY=0.5;entryDx=0;entryDy=0;" edge="1" parent="1" source="_2UYyv0-ffHDAKr5DHzZ-7" target="_2UYyv0-ffHDAKr5DHzZ-31">
          <mxGeometry relative="1" as="geometry" />
        </mxCell>
        <mxCell id="_2UYyv0-ffHDAKr5DHzZ-7" value="&amp;lt;&amp;lt;mensagem&amp;gt;&amp;gt;&lt;div&gt;DadosPedido&lt;/div&gt;" style="swimlane;fontStyle=1;align=center;verticalAlign=top;childLayout=stackLayout;horizontal=1;startSize=40;horizontalStack=0;resizeParent=1;resizeParentMax=0;resizeLast=0;collapsible=1;marginBottom=0;whiteSpace=wrap;html=1;" vertex="1" parent="1">
          <mxGeometry x="414" y="570" width="160" height="110" as="geometry" />
        </mxCell>
        <mxCell id="_2UYyv0-ffHDAKr5DHzZ-8" value="- identificador: String&lt;div&gt;- produtos: Array&amp;lt;Produto&amp;gt;&lt;/div&gt;&lt;div&gt;- valor: float&lt;/div&gt;&lt;div&gt;- data: dateTime&lt;/div&gt;" style="text;strokeColor=none;fillColor=none;align=left;verticalAlign=top;spacingLeft=4;spacingRight=4;overflow=hidden;rotatable=0;points=[[0,0.5],[1,0.5]];portConstraint=eastwest;whiteSpace=wrap;html=1;" vertex="1" parent="_2UYyv0-ffHDAKr5DHzZ-7">
          <mxGeometry y="40" width="160" height="70" as="geometry" />
        </mxCell>
        <mxCell id="_2UYyv0-ffHDAKr5DHzZ-30" style="edgeStyle=orthogonalEdgeStyle;rounded=0;orthogonalLoop=1;jettySize=auto;html=1;entryX=0.5;entryY=0;entryDx=0;entryDy=0;" edge="1" parent="1" source="_2UYyv0-ffHDAKr5DHzZ-17" target="_2UYyv0-ffHDAKr5DHzZ-5">
          <mxGeometry relative="1" as="geometry" />
        </mxCell>
        <mxCell id="_2UYyv0-ffHDAKr5DHzZ-17" value="" style="rhombus;whiteSpace=wrap;html=1;" vertex="1" parent="1">
          <mxGeometry x="280" y="370" width="30" height="30" as="geometry" />
        </mxCell>
        <mxCell id="_2UYyv0-ffHDAKr5DHzZ-35" style="edgeStyle=orthogonalEdgeStyle;rounded=0;orthogonalLoop=1;jettySize=auto;html=1;exitX=1;exitY=0.5;exitDx=0;exitDy=0;" edge="1" parent="1" source="_2UYyv0-ffHDAKr5DHzZ-21" target="_2UYyv0-ffHDAKr5DHzZ-24">
          <mxGeometry relative="1" as="geometry" />
        </mxCell>
        <mxCell id="_2UYyv0-ffHDAKr5DHzZ-21" value="&lt;p style=&quot;margin:0px;margin-top:4px;text-align:center;&quot;&gt;&lt;i&gt;&amp;lt;&amp;lt;MiddleWare&amp;gt;&amp;gt;&lt;/i&gt;&lt;br&gt;&lt;b&gt;Pedido&lt;/b&gt;&lt;/p&gt;&lt;hr size=&quot;1&quot; style=&quot;border-style:solid;&quot;&gt;&lt;p style=&quot;margin:0px;margin-left:4px;&quot;&gt;+ inserirPedido(DadosPedido): void&lt;br&gt;+ buscarPedido(String): DadosPedido&lt;/p&gt;" style="verticalAlign=top;align=left;overflow=fill;html=1;whiteSpace=wrap;" vertex="1" parent="1">
          <mxGeometry x="200" y="694" width="190" height="140" as="geometry" />
        </mxCell>
        <mxCell id="_2UYyv0-ffHDAKr5DHzZ-36" style="edgeStyle=orthogonalEdgeStyle;rounded=0;orthogonalLoop=1;jettySize=auto;html=1;exitX=0.5;exitY=1;exitDx=0;exitDy=0;" edge="1" parent="1" source="_2UYyv0-ffHDAKr5DHzZ-24" target="_2UYyv0-ffHDAKr5DHzZ-37">
          <mxGeometry relative="1" as="geometry">
            <mxPoint x="545" y="900" as="targetPoint" />
          </mxGeometry>
        </mxCell>
        <mxCell id="_2UYyv0-ffHDAKr5DHzZ-24" value="&lt;p style=&quot;margin:0px;margin-top:4px;text-align:center;&quot;&gt;&lt;b&gt;Pedido&lt;/b&gt;&lt;/p&gt;&lt;hr size=&quot;1&quot; style=&quot;border-style:solid;&quot;&gt;&lt;p style=&quot;margin:0px;margin-left:4px;&quot;&gt;+ inserirPedido(DadosPedido): void&lt;br&gt;+ buscarPedido(String): DadosPedido&lt;/p&gt;" style="verticalAlign=top;align=left;overflow=fill;html=1;whiteSpace=wrap;" vertex="1" parent="1">
          <mxGeometry x="450" y="694" width="190" height="140" as="geometry" />
        </mxCell>
        <mxCell id="_2UYyv0-ffHDAKr5DHzZ-34" style="edgeStyle=orthogonalEdgeStyle;rounded=0;orthogonalLoop=1;jettySize=auto;html=1;entryX=0.5;entryY=0;entryDx=0;entryDy=0;" edge="1" parent="1" source="_2UYyv0-ffHDAKr5DHzZ-31" target="_2UYyv0-ffHDAKr5DHzZ-21">
          <mxGeometry relative="1" as="geometry" />
        </mxCell>
        <mxCell id="_2UYyv0-ffHDAKr5DHzZ-31" value="" style="rhombus;whiteSpace=wrap;html=1;" vertex="1" parent="1">
          <mxGeometry x="280" y="610" width="30" height="30" as="geometry" />
        </mxCell>
        <mxCell id="_2UYyv0-ffHDAKr5DHzZ-37" value="BD" style="shape=cylinder3;whiteSpace=wrap;html=1;boundedLbl=1;backgroundOutline=1;size=15;" vertex="1" parent="1">
          <mxGeometry x="515" y="880" width="60" height="80" as="geometry" />
        </mxCell>
      </root>
    </mxGraphModel>
  </diagram>
</mxfile>
